<?xml version="1.0" ?><svg data-name="Layer 1" id="Layer_1" viewBox="0 0 64 64" xmlns="http://www.w3.org/2000/svg"><path d="M54,35h-3v-2c0-.43-.28-.81-.68-.95l-5.32-1.77v-.28c0-.55-.45-1-1-1-5.4,0-10.04,3.31-12,8-1.96-4.69-6.6-8-12-8-.55,0-1,.45-1,1v.28l-5.32,1.77c-.41,.14-.68,.52-.68,.95v2h-3c-.55,0-1,.45-1,1v24c0,.55,.45,1,1,1H26.59l1.71,1.71c.19,.19,.44,.29,.71,.29h6c.27,0,.52-.11,.71-.29l1.71-1.71h16.59c.55,0,1-.45,1-1v-24c0-.55-.45-1-1-1Zm-39-1.28l4-1.33v17.61c0,.55,.45,1,1,1,4.51,0,8.39,2.73,10.09,6.62-5.18-5.42-12.26-5.17-15.09-4.8v-19.1Zm14.41,27.28l-1.71-1.71c-.19-.19-.44-.29-.71-.29H11v-22h2v17c0,.31,.14,.6,.38,.79,.24,.19,.56,.26,.86,.18,.11-.03,10.31-2.42,15.99,6.03h-.82Zm1.59-5.91c-2.14-3.39-5.79-5.73-10-6.05V31.04c5.6,.51,10,5.23,10,10.96v13.09Zm14-5.09v-17.61l4,1.33v19.1c-2.83-.37-9.91-.62-15.09,4.8,1.7-3.89,5.58-6.62,10.09-6.62,.55,0,1-.45,1-1Zm-12-8c0-5.73,4.4-10.45,10-10.96v17.99c-4.21,.32-7.86,2.66-10,6.05v-13.09Zm20,17h-16c-.27,0-.52,.11-.71,.29l-1.71,1.71h-.82c5.63-8.43,15.55-6.14,15.99-6.03,.3,.07,.61,0,.86-.19,.24-.19,.38-.48,.38-.79v-17h2v22Z"/><path d="M32,17c3.31,0,6-2.69,6-6s-2.69-6-6-6-6,2.69-6,6,2.69,6,6,6Zm0-10c2.21,0,4,1.79,4,4s-1.79,4-4,4-4-1.79-4-4,1.79-4,4-4Z"/><path d="M23.43,6.94c-.39,.04-.72,.3-.85,.67-.39,1.11-.58,2.25-.58,3.4s.2,2.29,.58,3.4c.13,.37,.46,.63,.85,.67,.33,.03,.61,.22,.77,.5,.17,.29,.18,.65,.04,.96-.16,.35-.1,.76,.15,1.05,.74,.89,1.62,1.63,2.61,2.21v1.49c-.59,.35-1,.99-1,1.72v2c0,1.1,.9,2,2,2h8c1.1,0,2-.9,2-2v-2c0-.74-.41-1.37-1-1.72v-1.49c.99-.58,1.87-1.32,2.61-2.21,.25-.29,.3-.7,.15-1.05-.14-.31-.12-.67,.04-.96,.16-.29,.44-.47,.77-.5,.39-.04,.72-.3,.85-.67,.39-1.11,.58-2.25,.58-3.4s-.2-2.29-.58-3.4c-.13-.37-.46-.63-.85-.67-.33-.03-.61-.22-.77-.5-.17-.29-.18-.65-.04-.96,.16-.35,.1-.76-.15-1.05-1.49-1.78-3.55-2.99-5.8-3.41-.39-.07-.78,.09-1,.41-.38,.55-1.23,.55-1.62,0-.22-.32-.62-.48-1-.41-2.25,.42-4.31,1.63-5.8,3.41-.25,.29-.3,.7-.15,1.05,.14,.31,.12,.67-.04,.96-.16,.29-.44,.47-.77,.5Zm4.57,18.06v-2h8v2s-8,0-8,0Zm-2.06-17.58c.37-.64,.48-1.4,.34-2.11,1.03-1.07,2.33-1.84,3.75-2.21,1.08,.97,2.87,.97,3.96,0,1.42,.37,2.72,1.14,3.75,2.21-.14,.72-.03,1.47,.33,2.11,.36,.64,.95,1.12,1.63,1.36,.21,.73,.31,1.48,.31,2.22s-.1,1.49-.31,2.22c-.68,.24-1.27,.71-1.63,1.36-.37,.64-.48,1.4-.34,2.11-.63,.66-1.36,1.19-2.17,1.61-.34,.17-.55,.52-.55,.89v1.81h-6v-1.81c0-.38-.21-.72-.55-.89-.82-.41-1.55-.95-2.17-1.61,.14-.72,.03-1.47-.33-2.11-.36-.64-.95-1.12-1.63-1.36-.21-.73-.31-1.48-.31-2.22s.1-1.49,.31-2.22c.68-.24,1.27-.71,1.63-1.36Z"/><rect height="2" width="2" x="21" y="17"/><rect height="2" width="2" x="18" y="10"/><rect height="2" width="2" x="14" y="13"/><rect height="2" width="2" x="11" y="17"/><rect height="2" width="2" x="11" y="22"/><rect height="2" width="2" x="11" y="28"/><rect height="2" width="2" x="44" y="10"/><rect height="2" width="2" x="48" y="13"/><rect height="2" width="2" x="51" y="17"/><rect height="2" width="2" x="51" y="22"/><rect height="2" width="2" x="51" y="28"/><rect height="2" width="2" x="21" y="21"/><rect height="2" width="2" x="21" y="25"/><rect height="2" width="2" x="41" y="17"/><rect height="2" width="2" x="41" y="21"/><rect height="2" width="2" x="41" y="25"/><rect height="2" width="2" x="31" y="28"/><rect height="2" width="2" x="31" y="32"/></svg>